<?xml version="1.0" encoding="utf-8"?>

<svg version="1.1" id="Icons" xmlns="http://www.w3.org/2000/svg" xmlns:xlink="http://www.w3.org/1999/xlink" x="0px" y="0px"
	 viewBox="0 0 32 32" style="enable-background:new 0 0 32 32;" xml:space="preserve">
<style type="text/css">
	.st0{fill:none;stroke:#000000;stroke-width:2;stroke-linecap:round;stroke-linejoin:round;stroke-miterlimit:10;}
</style>
<circle class="st0" cx="16" cy="16" r="9"/>
<path class="st0" d="M20,1L20,1L20,1c0.3,3.4,3.9,5.4,7,4l0,0l0,0c-1.4,3.1,0.6,6.6,4,7l0,0l0,0c-2.8,2-2.8,6.1,0,8l0,0l0,0
	c-3.4,0.3-5.4,3.9-4,7l0,0l0,0c-3.1-1.4-6.6,0.6-7,4l0,0l0,0c-2-2.8-6.1-2.8-8,0l0,0l0,0c-0.3-3.4-3.9-5.4-7-4l0,0l0,0
	c1.4-3.1-0.6-6.6-4-7l0,0l0,0c2.8-2,2.8-6.1,0-8l0,0l0,0c3.4-0.3,5.4-3.9,4-7l0,0l0,0c3.1,1.4,6.6-0.6,7-4l0,0l0,0
	C13.9,3.8,18.1,3.8,20,1z"/>
</svg>
